<svg xmlns="http://www.w3.org/2000/svg" xmlns:xlink="http://www.w3.org/1999/xlink" width="500" zoomAndPan="magnify" viewBox="0 0 375 374.999991" height="500" preserveAspectRatio="xMidYMid meet" version="1.0"><defs><g/><clipPath id="813fa0cc30"><rect x="0" width="102" y="0" height="200"/></clipPath><clipPath id="41816d7e5c"><rect x="0" width="153" y="0" height="357"/></clipPath></defs><g transform="matrix(1, 0, 0, 1, 146, 92)"><g clip-path="url(#813fa0cc30)"><g fill="#000000" fill-opacity="1"><g transform="translate(13.554436, 150.68824)"><g><path d="M -1.15625 -48.84375 C -0.582031 -48.894531 -0.320312 -49.253906 -0.375 -49.921875 C -0.414062 -50.398438 -0.359375 -50.882812 -0.203125 -51.375 C -0.046875 -51.875 0.0625 -52.316406 0.125 -52.703125 C 0.113281 -52.796875 0.128906 -52.890625 0.171875 -52.984375 C 0.210938 -53.085938 0.234375 -53.1875 0.234375 -53.28125 C 0.210938 -53.46875 0.164062 -53.703125 0.09375 -53.984375 C 0.0195312 -54.265625 0.0195312 -54.554688 0.09375 -54.859375 C 0.238281 -55.359375 0.398438 -55.707031 0.578125 -55.90625 C 0.347656 -56.382812 0.125 -56.800781 -0.09375 -57.15625 C -0.320312 -57.519531 -0.546875 -57.882812 -0.765625 -58.25 C -0.773438 -58.34375 -0.78125 -58.4375 -0.78125 -58.53125 C -0.789062 -58.632812 -0.800781 -58.734375 -0.8125 -58.828125 C -0.675781 -59.515625 -0.625 -60.023438 -0.65625 -60.359375 C -0.6875 -60.703125 -0.820312 -61.195312 -1.0625 -61.84375 C -1.070312 -62.03125 -1.113281 -62.3125 -1.1875 -62.6875 C -1.269531 -63.0625 -1.132812 -63.363281 -0.78125 -63.59375 C -0.59375 -63.707031 -0.484375 -63.882812 -0.453125 -64.125 C -0.429688 -64.375 -0.375 -64.546875 -0.28125 -64.640625 C -0.5 -65.015625 -0.742188 -65.359375 -1.015625 -65.671875 C -1.285156 -65.984375 -1.535156 -66.320312 -1.765625 -66.6875 C -1.671875 -66.882812 -1.523438 -66.941406 -1.328125 -66.859375 C -1.140625 -66.773438 -1.007812 -66.929688 -0.9375 -67.328125 C -1 -68.191406 -0.863281 -68.832031 -0.53125 -69.25 C -0.257812 -69.5625 -0.15625 -69.859375 -0.21875 -70.140625 C -0.289062 -70.429688 -0.390625 -70.710938 -0.515625 -70.984375 C -0.515625 -71.085938 -0.515625 -71.140625 -0.515625 -71.140625 C -0.515625 -71.140625 -0.519531 -71.1875 -0.53125 -71.28125 C -0.1875 -71.78125 -0.140625 -72.085938 -0.390625 -72.203125 C -0.648438 -72.328125 -0.878906 -72.4375 -1.078125 -72.53125 C -1.023438 -73.007812 -0.992188 -73.46875 -0.984375 -73.90625 C -0.972656 -74.34375 -0.929688 -74.753906 -0.859375 -75.140625 C -0.785156 -75.441406 -0.710938 -75.734375 -0.640625 -76.015625 C -0.566406 -76.304688 -0.347656 -76.566406 0.015625 -76.796875 C 0.296875 -77.015625 0.515625 -77.273438 0.671875 -77.578125 C 0.835938 -77.878906 1.050781 -78.1875 1.3125 -78.5 C 1.664062 -78.914062 2.039062 -79.332031 2.4375 -79.75 C 2.84375 -80.164062 3.222656 -80.578125 3.578125 -80.984375 C 3.984375 -80.742188 4.382812 -80.519531 4.78125 -80.3125 C 5.175781 -80.101562 5.578125 -79.867188 5.984375 -79.609375 C 6.191406 -79.523438 6.414062 -79.441406 6.65625 -79.359375 C 6.90625 -79.285156 7.125 -79.257812 7.3125 -79.28125 C 7.976562 -79.332031 8.601562 -79.3125 9.1875 -79.21875 C 9.78125 -79.125 10.414062 -79.003906 11.09375 -78.859375 C 11.582031 -78.804688 12.070312 -78.703125 12.5625 -78.546875 C 13.0625 -78.398438 13.507812 -78.25 13.90625 -78.09375 C 14.195312 -78.019531 14.535156 -78 14.921875 -78.03125 C 15.304688 -78.0625 15.601562 -77.988281 15.8125 -77.8125 C 16.300781 -77.65625 16.773438 -77.425781 17.234375 -77.125 C 17.691406 -76.832031 18.175781 -76.566406 18.6875 -76.328125 C 18.875 -76.242188 19.0625 -76.1875 19.25 -76.15625 C 19.445312 -76.125 19.597656 -76.0625 19.703125 -75.96875 C 19.921875 -75.695312 20.085938 -75.421875 20.203125 -75.140625 C 20.328125 -74.859375 20.492188 -74.632812 20.703125 -74.46875 C 21.398438 -74.132812 22.015625 -73.675781 22.546875 -73.09375 C 23.078125 -72.519531 23.78125 -72.175781 24.65625 -72.0625 C 24.050781 -71.320312 24.132812 -70.890625 24.90625 -70.765625 C 25.101562 -70.785156 25.207031 -70.703125 25.21875 -70.515625 C 25.425781 -70.234375 25.566406 -69.953125 25.640625 -69.671875 C 25.710938 -69.390625 25.8125 -69.113281 25.9375 -68.84375 C 25.988281 -68.175781 26.40625 -67.773438 27.1875 -67.640625 C 27.039062 -67.046875 26.976562 -66.65625 27 -66.46875 C 27.050781 -65.789062 27.171875 -65.460938 27.359375 -65.484375 C 28.066406 -65.148438 28.488281 -64.703125 28.625 -64.140625 C 28.769531 -63.585938 29.050781 -63.085938 29.46875 -62.640625 C 29.488281 -62.441406 29.457031 -62.289062 29.375 -62.1875 C 29.195312 -60.820312 29.722656 -59.710938 30.953125 -58.859375 C 30.785156 -58.453125 30.65625 -58.203125 30.5625 -58.109375 C 30.8125 -57.453125 31.007812 -56.796875 31.15625 -56.140625 C 31.3125 -55.484375 31.46875 -54.769531 31.625 -54 C 32.382812 -54.25 32.757812 -54.707031 32.75 -55.375 C 32.738281 -56.050781 33.113281 -56.472656 33.875 -56.640625 C 33.476562 -56.796875 33.175781 -56.960938 32.96875 -57.140625 C 33.144531 -57.347656 33.296875 -57.550781 33.421875 -57.75 C 33.546875 -57.957031 33.65625 -58.113281 33.75 -58.21875 C 33.539062 -58.394531 33.425781 -58.582031 33.40625 -58.78125 C 33.394531 -58.96875 33.40625 -59.15625 33.4375 -59.34375 C 33.46875 -59.539062 33.476562 -59.6875 33.46875 -59.78125 C 33.613281 -60.363281 33.84375 -60.53125 34.15625 -60.28125 C 34.25 -60.195312 34.414062 -60.164062 34.65625 -60.1875 C 34.894531 -60.207031 35.046875 -60.40625 35.109375 -60.78125 C 35.265625 -61.269531 35.367188 -61.785156 35.421875 -62.328125 C 35.472656 -62.867188 35.429688 -63.328125 35.296875 -63.703125 C 35.253906 -64.179688 35.3125 -64.613281 35.46875 -65 C 35.632812 -65.394531 35.75 -65.789062 35.8125 -66.1875 C 35.613281 -66.363281 35.410156 -66.515625 35.203125 -66.640625 C 35.003906 -66.765625 34.804688 -66.867188 34.609375 -66.953125 C 34.773438 -67.160156 34.945312 -67.367188 35.125 -67.578125 C 35.300781 -67.785156 35.28125 -68.070312 35.0625 -68.4375 C 34.945312 -68.625 35.019531 -68.867188 35.28125 -69.171875 C 35.550781 -69.484375 35.441406 -69.71875 34.953125 -69.875 C 35.117188 -70.070312 35.203125 -70.171875 35.203125 -70.171875 C 35.578125 -70.296875 35.976562 -70.425781 36.40625 -70.5625 C 36.832031 -70.695312 37.019531 -71.097656 36.96875 -71.765625 C 36.96875 -71.765625 37.035156 -71.789062 37.171875 -71.84375 C 37.304688 -71.90625 37.375 -71.9375 37.375 -71.9375 C 37.34375 -72.226562 37.316406 -72.515625 37.296875 -72.796875 C 37.273438 -73.085938 37.253906 -73.378906 37.234375 -73.671875 C 37.203125 -73.953125 37.175781 -74.207031 37.15625 -74.4375 C 37.144531 -74.675781 37.179688 -74.898438 37.265625 -75.109375 C 37.410156 -75.597656 37.410156 -76.125 37.265625 -76.6875 C 37.128906 -77.257812 37.222656 -77.851562 37.546875 -78.46875 C 37.710938 -78.769531 37.753906 -79.109375 37.671875 -79.484375 C 37.597656 -79.859375 37.59375 -80.242188 37.65625 -80.640625 C 37.71875 -81.023438 37.820312 -81.515625 37.96875 -82.109375 C 38.050781 -82.304688 38.15625 -82.503906 38.28125 -82.703125 C 38.40625 -82.910156 38.515625 -83.113281 38.609375 -83.3125 C 38.566406 -83.78125 38.492188 -84.300781 38.390625 -84.875 C 38.296875 -85.445312 38.273438 -86.023438 38.328125 -86.609375 C 38.328125 -86.609375 38.457031 -86.765625 38.71875 -87.078125 C 39.238281 -87.785156 39.140625 -88.398438 38.421875 -88.921875 C 38.316406 -89.003906 38.238281 -89.046875 38.1875 -89.046875 C 38.144531 -89.046875 38.070312 -89.085938 37.96875 -89.171875 C 38.050781 -89.367188 38.226562 -89.550781 38.5 -89.71875 C 38.78125 -89.882812 38.757812 -90.148438 38.4375 -90.515625 C 38.695312 -90.921875 38.976562 -91.300781 39.28125 -91.65625 C 39.59375 -92.019531 39.875 -92.410156 40.125 -92.828125 C 40.53125 -93.710938 41.164062 -94.191406 42.03125 -94.265625 C 43.539062 -94.578125 44.71875 -94.242188 45.5625 -93.265625 C 45.769531 -93.097656 45.957031 -92.875 46.125 -92.59375 C 46.300781 -92.3125 46.539062 -92.039062 46.84375 -91.78125 C 47.375 -91.144531 47.832031 -90.84375 48.21875 -90.875 C 48.976562 -91.03125 49.394531 -90.921875 49.46875 -90.546875 C 49.550781 -90.171875 49.609375 -89.789062 49.640625 -89.40625 C 49.953125 -89.25 50.253906 -89.109375 50.546875 -88.984375 C 50.835938 -88.867188 51.085938 -88.71875 51.296875 -88.53125 C 51.296875 -88.53125 51.316406 -88.554688 51.359375 -88.609375 C 51.410156 -88.671875 51.4375 -88.703125 51.4375 -88.703125 C 51.320312 -88.785156 51.238281 -88.847656 51.1875 -88.890625 C 51.132812 -88.941406 51.0625 -89.007812 50.96875 -89.09375 C 51.050781 -89.207031 51.085938 -89.3125 51.078125 -89.40625 C 51.378906 -89.332031 51.65625 -89.234375 51.90625 -89.109375 C 52.15625 -88.984375 52.425781 -88.929688 52.71875 -88.953125 C 53.394531 -88.910156 53.90625 -88.566406 54.25 -87.921875 C 54.457031 -87.742188 54.570312 -87.484375 54.59375 -87.140625 C 54.625 -86.804688 54.703125 -86.457031 54.828125 -86.09375 C 54.753906 -85.882812 54.703125 -85.632812 54.671875 -85.34375 C 54.648438 -85.0625 54.796875 -84.742188 55.109375 -84.390625 C 55.304688 -84.304688 55.425781 -84.023438 55.46875 -83.546875 C 55.414062 -83.054688 55.640625 -82.6875 56.140625 -82.4375 C 56.640625 -82.1875 57.109375 -81.742188 57.546875 -81.109375 C 57.671875 -80.742188 57.859375 -80.5 58.109375 -80.375 C 58.367188 -80.257812 58.597656 -80.109375 58.796875 -79.921875 C 59.117188 -79.554688 59.414062 -79.21875 59.6875 -78.90625 C 59.957031 -78.59375 60.195312 -78.253906 60.40625 -77.890625 C 60.738281 -77.335938 61.09375 -76.785156 61.46875 -76.234375 C 61.851562 -75.691406 62.21875 -75.144531 62.5625 -74.59375 C 62.65625 -74.507812 62.6875 -74.34375 62.65625 -74.09375 C 62.632812 -73.851562 62.632812 -73.632812 62.65625 -73.4375 C 62.65625 -73.4375 62.726562 -73.421875 62.875 -73.390625 C 63.03125 -73.359375 63.15625 -73.347656 63.25 -73.359375 C 63.707031 -72.441406 64.191406 -71.519531 64.703125 -70.59375 C 65.210938 -69.664062 65.695312 -68.691406 66.15625 -67.671875 C 66.382812 -67.316406 66.488281 -66.941406 66.46875 -66.546875 C 66.457031 -66.160156 66.515625 -65.78125 66.640625 -65.40625 C 66.765625 -65.03125 66.882812 -64.703125 67 -64.421875 C 67.113281 -64.140625 67.238281 -63.8125 67.375 -63.4375 C 67.625 -62.789062 67.796875 -62.132812 67.890625 -61.46875 C 67.992188 -60.800781 68.125 -60.085938 68.28125 -59.328125 C 68.414062 -59.054688 68.519531 -58.753906 68.59375 -58.421875 C 68.664062 -58.085938 68.757812 -57.785156 68.875 -57.515625 C 68.914062 -57.035156 68.953125 -56.578125 68.984375 -56.140625 C 69.023438 -55.710938 69.109375 -55.265625 69.234375 -54.796875 C 69.484375 -54.242188 69.703125 -53.6875 69.890625 -53.125 C 70.078125 -52.5625 70.25 -52 70.40625 -51.4375 C 70.5 -51.34375 70.597656 -51.226562 70.703125 -51.09375 C 70.816406 -50.957031 70.785156 -50.78125 70.609375 -50.5625 C 70.523438 -50.46875 70.519531 -50.28125 70.59375 -50 C 70.664062 -49.71875 70.707031 -49.484375 70.71875 -49.296875 C 70.632812 -49.191406 70.519531 -49.109375 70.375 -49.046875 C 70.238281 -48.984375 70.070312 -48.898438 69.875 -48.796875 C 69.875 -48.796875 69.875 -48.769531 69.875 -48.71875 C 69.882812 -48.675781 69.84375 -48.648438 69.75 -48.640625 C 70.351562 -48.492188 70.75 -48.425781 70.9375 -48.4375 C 71.082031 -47.78125 71.132812 -47.109375 71.09375 -46.421875 C 71.050781 -45.742188 71.347656 -45.101562 71.984375 -44.5 C 72.171875 -44.507812 72.28125 -44.320312 72.3125 -43.9375 C 72.320312 -43.738281 72.359375 -43.519531 72.421875 -43.28125 C 72.492188 -43.050781 72.539062 -42.796875 72.5625 -42.515625 C 72.476562 -42.398438 72.390625 -42.316406 72.296875 -42.265625 C 72.210938 -42.210938 72.082031 -42.082031 71.90625 -41.875 C 72.71875 -41.164062 72.976562 -40.320312 72.6875 -39.34375 C 72.6875 -39.34375 72.6875 -39.316406 72.6875 -39.265625 C 72.695312 -39.222656 72.660156 -39.15625 72.578125 -39.0625 C 73.046875 -38.988281 73.242188 -38.804688 73.171875 -38.515625 C 73.109375 -38.222656 73.128906 -37.988281 73.234375 -37.8125 C 73.679688 -37.164062 73.890625 -36.410156 73.859375 -35.546875 C 73.828125 -34.679688 73.941406 -33.875 74.203125 -33.125 C 74.441406 -32.5625 74.519531 -31.941406 74.4375 -31.265625 C 74.351562 -30.585938 74.519531 -29.972656 74.9375 -29.421875 C 75.132812 -29.429688 75.144531 -29.335938 74.96875 -29.140625 C 75 -28.660156 75.0625 -28.160156 75.15625 -27.640625 C 75.257812 -27.128906 75.375 -26.632812 75.5 -26.15625 C 75.601562 -26.0625 75.613281 -25.914062 75.53125 -25.71875 C 75.457031 -25.53125 75.429688 -25.335938 75.453125 -25.140625 C 75.554688 -24.953125 75.691406 -24.722656 75.859375 -24.453125 C 76.035156 -24.179688 76.191406 -23.804688 76.328125 -23.328125 C 75.929688 -23.390625 75.632812 -23.410156 75.4375 -23.390625 C 75.25 -23.378906 75.054688 -23.414062 74.859375 -23.5 C 74.867188 -23.40625 74.847656 -23.332031 74.796875 -23.28125 C 74.753906 -23.226562 74.734375 -23.203125 74.734375 -23.203125 C 75.128906 -23.035156 75.378906 -22.910156 75.484375 -22.828125 C 75.710938 -22.460938 75.910156 -22.117188 76.078125 -21.796875 C 76.253906 -21.484375 76.363281 -21.085938 76.40625 -20.609375 C 76.425781 -20.316406 76.488281 -20.125 76.59375 -20.03125 C 76.601562 -19.9375 76.660156 -19.820312 76.765625 -19.6875 C 76.867188 -19.550781 76.925781 -19.4375 76.9375 -19.34375 C 76.820312 -18.363281 76.898438 -17.429688 77.171875 -16.546875 C 77.441406 -15.660156 77.660156 -14.738281 77.828125 -13.78125 C 77.867188 -13.3125 77.9375 -12.765625 78.03125 -12.140625 C 78.132812 -11.523438 78.351562 -10.988281 78.6875 -10.53125 C 78.8125 -10.15625 78.863281 -9.769531 78.84375 -9.375 C 78.832031 -8.988281 78.847656 -8.5625 78.890625 -8.09375 C 78.785156 -8.082031 78.640625 -8.046875 78.453125 -7.984375 C 78.265625 -7.929688 78.070312 -7.894531 77.875 -7.875 C 78.28125 -7.71875 78.4375 -7.632812 78.34375 -7.625 C 78.832031 -7.5625 79.234375 -7.375 79.546875 -7.0625 C 79.859375 -6.757812 80.078125 -6.367188 80.203125 -5.890625 C 80.304688 -5.710938 80.300781 -5.28125 80.1875 -4.59375 C 80.113281 -4.300781 79.988281 -4.023438 79.8125 -3.765625 C 79.644531 -3.515625 79.519531 -3.289062 79.4375 -3.09375 C 79.375 -2.695312 79.226562 -2.421875 79 -2.265625 C 78.769531 -2.109375 78.566406 -1.921875 78.390625 -1.703125 C 78.210938 -1.585938 78.035156 -1.398438 77.859375 -1.140625 C 77.691406 -0.890625 77.515625 -0.660156 77.328125 -0.453125 C 76.585938 -0.203125 75.984375 -0.0546875 75.515625 -0.015625 C 75.128906 0.015625 74.816406 0.0390625 74.578125 0.0625 C 74.335938 0.0820312 74.070312 0.101562 73.78125 0.125 C 73.6875 0.132812 73.585938 0.09375 73.484375 0 C 73.378906 -0.0820312 73.226562 -0.113281 73.03125 -0.09375 C 72.632812 -0.257812 72.285156 -0.378906 71.984375 -0.453125 C 71.691406 -0.523438 71.378906 -0.304688 71.046875 0.203125 C 70.835938 -0.0664062 70.671875 -0.34375 70.546875 -0.625 C 70.429688 -0.90625 70.132812 -0.976562 69.65625 -0.84375 C 69.46875 -0.820312 69.191406 -0.988281 68.828125 -1.34375 C 68.460938 -1.707031 68.171875 -1.972656 67.953125 -2.140625 C 67.847656 -2.328125 67.710938 -2.53125 67.546875 -2.75 C 67.378906 -2.976562 67.191406 -3.226562 66.984375 -3.5 C 67.234375 -4 67.003906 -4.460938 66.296875 -4.890625 C 66.179688 -5.078125 66.066406 -5.238281 65.953125 -5.375 C 65.847656 -5.507812 65.75 -5.617188 65.65625 -5.703125 C 65.394531 -6.453125 65.132812 -7.195312 64.875 -7.9375 C 64.625 -8.6875 64.375 -9.441406 64.125 -10.203125 C 64.21875 -10.304688 64.328125 -10.4375 64.453125 -10.59375 C 64.578125 -10.75 64.6875 -10.878906 64.78125 -10.984375 C 64.550781 -11.347656 64.28125 -11.679688 63.96875 -11.984375 C 63.65625 -12.296875 63.394531 -12.585938 63.1875 -12.859375 C 63.0625 -13.035156 62.988281 -13.269531 62.96875 -13.5625 C 63.28125 -14.550781 63.171875 -15.3125 62.640625 -15.84375 C 62.628906 -15.945312 62.644531 -16.046875 62.6875 -16.140625 C 62.726562 -16.242188 62.742188 -16.34375 62.734375 -16.4375 C 63.035156 -17.519531 62.78125 -18.316406 61.96875 -18.828125 C 61.832031 -19.203125 61.75 -19.53125 61.71875 -19.8125 C 61.695312 -20.101562 61.628906 -20.390625 61.515625 -20.671875 C 61.359375 -21.421875 61.203125 -22.125 61.046875 -22.78125 C 60.898438 -23.445312 60.703125 -24.109375 60.453125 -24.765625 C 60.910156 -25.097656 61.007812 -25.367188 60.75 -25.578125 C 60.488281 -25.796875 60.347656 -26.050781 60.328125 -26.34375 C 60.304688 -26.625 60.257812 -26.90625 60.1875 -27.1875 C 60.113281 -27.476562 60.070312 -27.71875 60.0625 -27.90625 C 60.007812 -28.476562 59.859375 -29.144531 59.609375 -29.90625 C 59.578125 -30.28125 59.5 -30.628906 59.375 -30.953125 C 59.257812 -31.273438 59.1875 -31.628906 59.15625 -32.015625 C 59.03125 -32.296875 58.976562 -32.601562 59 -32.9375 C 59.019531 -33.28125 58.972656 -33.59375 58.859375 -33.875 C 58.835938 -34.0625 58.796875 -34.269531 58.734375 -34.5 C 58.671875 -34.738281 58.671875 -35.003906 58.734375 -35.296875 C 58.878906 -35.796875 58.773438 -36.128906 58.421875 -36.296875 C 58.078125 -36.460938 57.664062 -36.570312 57.1875 -36.625 C 57.332031 -37.113281 57.460938 -37.554688 57.578125 -37.953125 C 57.691406 -38.359375 57.78125 -38.753906 57.84375 -39.140625 C 57.726562 -39.316406 57.59375 -39.46875 57.4375 -39.59375 C 57.28125 -39.726562 57.101562 -39.835938 56.90625 -39.921875 C 57.320312 -40.722656 57.160156 -41.476562 56.421875 -42.1875 C 56.097656 -42.644531 55.882812 -43.15625 55.78125 -43.71875 C 55.6875 -44.289062 55.570312 -44.859375 55.4375 -45.421875 C 55.289062 -45.992188 55.191406 -46.59375 55.140625 -47.21875 C 55.085938 -47.84375 55.039062 -48.4375 55 -49 C 54.882812 -49.175781 54.820312 -49.363281 54.8125 -49.5625 C 54.6875 -49.9375 54.628906 -50.316406 54.640625 -50.703125 C 54.660156 -51.085938 54.460938 -51.457031 54.046875 -51.8125 C 53.722656 -52.082031 53.613281 -52.457031 53.71875 -52.9375 C 53.832031 -53.425781 54.019531 -53.875 54.28125 -54.28125 C 54.40625 -54.96875 54.273438 -55.34375 53.890625 -55.40625 C 53.390625 -55.5625 53.125 -55.804688 53.09375 -56.140625 C 53.070312 -56.472656 53.097656 -56.789062 53.171875 -57.09375 C 53.390625 -57.875 53.160156 -58.425781 52.484375 -58.75 C 52.722656 -59.0625 52.882812 -59.316406 52.96875 -59.515625 C 52.851562 -59.703125 52.742188 -59.859375 52.640625 -59.984375 C 52.546875 -60.117188 52.394531 -60.234375 52.1875 -60.328125 C 52.28125 -60.523438 52.390625 -60.914062 52.515625 -61.5 C 52.222656 -61.582031 51.835938 -61.601562 51.359375 -61.5625 C 51.085938 -61.4375 50.976562 -61.304688 51.03125 -61.171875 C 51.09375 -61.035156 51.085938 -60.863281 51.015625 -60.65625 C 50.953125 -60.164062 50.867188 -59.648438 50.765625 -59.109375 C 50.671875 -58.578125 50.597656 -58.066406 50.546875 -57.578125 C 50.535156 -56.421875 50.25 -55.195312 49.6875 -53.90625 C 49.6875 -53.90625 49.695312 -53.757812 49.71875 -53.46875 C 49.75 -53.082031 49.753906 -52.695312 49.734375 -52.3125 C 49.722656 -51.9375 49.632812 -51.550781 49.46875 -51.15625 C 49.300781 -50.84375 49.207031 -50.515625 49.1875 -50.171875 C 49.175781 -49.835938 49.132812 -49.523438 49.0625 -49.234375 C 49 -48.835938 48.929688 -48.492188 48.859375 -48.203125 C 48.796875 -47.910156 48.828125 -47.53125 48.953125 -47.0625 C 49.066406 -46.882812 49.0625 -46.644531 48.9375 -46.34375 C 48.820312 -46.039062 48.679688 -45.738281 48.515625 -45.4375 C 48.390625 -44.65625 48.21875 -43.84375 48 -43 C 47.78125 -42.164062 47.554688 -41.359375 47.328125 -40.578125 C 47.328125 -40.578125 47.300781 -40.550781 47.25 -40.5 C 47.207031 -40.445312 47.191406 -40.367188 47.203125 -40.265625 C 47.441406 -39.617188 47.394531 -39.019531 47.0625 -38.46875 C 46.726562 -37.914062 46.632812 -37.300781 46.78125 -36.625 C 46.789062 -36.53125 46.53125 -36.175781 46 -35.5625 C 46.3125 -35.289062 46.390625 -34.910156 46.234375 -34.421875 C 45.984375 -34.003906 45.847656 -33.578125 45.828125 -33.140625 C 45.816406 -32.710938 45.738281 -32.253906 45.59375 -31.765625 C 45.507812 -31.660156 45.472656 -31.535156 45.484375 -31.390625 C 45.492188 -31.253906 45.457031 -31.128906 45.375 -31.015625 C 45.050781 -30.222656 44.773438 -29.429688 44.546875 -28.640625 C 44.328125 -27.859375 44.054688 -27.070312 43.734375 -26.28125 C 43.742188 -26.175781 43.726562 -26.070312 43.6875 -25.96875 C 43.644531 -25.875 43.675781 -25.785156 43.78125 -25.703125 C 44.101562 -25.335938 44.160156 -24.953125 43.953125 -24.546875 C 43.742188 -24.148438 43.554688 -23.753906 43.390625 -23.359375 C 43.265625 -22.671875 43.050781 -22.050781 42.75 -21.5 C 42.457031 -20.945312 42.34375 -20.289062 42.40625 -19.53125 C 42.0625 -19.207031 41.8125 -18.796875 41.65625 -18.296875 C 41.507812 -17.804688 41.15625 -17.441406 40.59375 -17.203125 C 40.3125 -17.085938 40.015625 -16.875 39.703125 -16.5625 C 39.390625 -16.25 39.132812 -16.128906 38.9375 -16.203125 C 38.4375 -16.359375 38.050781 -16.328125 37.78125 -16.109375 C 37.519531 -15.890625 37.253906 -15.675781 36.984375 -15.46875 C 36.898438 -15.363281 36.835938 -15.234375 36.796875 -15.078125 C 36.765625 -14.929688 36.65625 -14.757812 36.46875 -14.5625 C 35.863281 -14.882812 35.285156 -15.171875 34.734375 -15.421875 C 34.191406 -15.671875 33.546875 -15.664062 32.796875 -15.40625 C 32.703125 -15.394531 32.507812 -15.398438 32.21875 -15.421875 C 31.9375 -15.453125 31.726562 -15.65625 31.59375 -16.03125 C 31.53125 -16.800781 31.035156 -16.90625 30.109375 -16.34375 C 29.953125 -17.101562 29.722656 -17.832031 29.421875 -18.53125 C 29.128906 -19.226562 29.148438 -19.925781 29.484375 -20.625 C 29.472656 -20.71875 29.488281 -20.789062 29.53125 -20.84375 C 29.570312 -20.894531 29.585938 -20.96875 29.578125 -21.0625 C 29.359375 -21.53125 29.25 -22.003906 29.25 -22.484375 C 29.257812 -22.960938 29.203125 -23.390625 29.078125 -23.765625 C 28.941406 -24.234375 28.800781 -24.726562 28.65625 -25.25 C 28.519531 -25.769531 28.476562 -26.269531 28.53125 -26.75 C 28.613281 -26.957031 28.59375 -27.195312 28.46875 -27.46875 C 28.351562 -27.75 28.242188 -27.929688 28.140625 -28.015625 C 28.023438 -28.296875 27.882812 -28.550781 27.71875 -28.78125 C 27.5625 -29.007812 27.429688 -29.210938 27.328125 -29.390625 C 27.109375 -29.566406 26.875 -29.691406 26.625 -29.765625 C 26.382812 -29.847656 26.347656 -30.085938 26.515625 -30.484375 C 26.585938 -30.679688 26.585938 -30.921875 26.515625 -31.203125 C 26.453125 -31.484375 26.40625 -31.769531 26.375 -32.0625 C 26.332031 -32.625 26.25 -33.09375 26.125 -33.46875 C 25.53125 -33.519531 25.300781 -33.863281 25.4375 -34.5 C 25.582031 -35.144531 25.316406 -35.535156 24.640625 -35.671875 C 25.171875 -36.203125 25.117188 -36.773438 24.484375 -37.390625 C 23.546875 -38.273438 22.984375 -39.289062 22.796875 -40.4375 C 22.648438 -40.894531 22.460938 -41.328125 22.234375 -41.734375 C 22.015625 -42.148438 21.789062 -42.59375 21.5625 -43.0625 C 21.550781 -43.257812 21.535156 -43.453125 21.515625 -43.640625 C 21.503906 -43.835938 21.441406 -44.070312 21.328125 -44.34375 C 20.722656 -44.582031 20.382812 -45.128906 20.3125 -45.984375 C 20.257812 -46.648438 20.15625 -47.289062 20 -47.90625 C 19.851562 -48.53125 19.707031 -49.171875 19.5625 -49.828125 C 19.445312 -50.097656 19.078125 -50.5 18.453125 -51.03125 C 18.515625 -51.425781 18.503906 -51.835938 18.421875 -52.265625 C 18.335938 -52.691406 17.988281 -53.070312 17.375 -53.40625 C 17.820312 -53.832031 17.78125 -54.351562 17.25 -54.96875 C 17.132812 -55.257812 16.992188 -55.539062 16.828125 -55.8125 C 16.660156 -56.082031 16.507812 -56.410156 16.375 -56.796875 C 16.238281 -57.265625 15.890625 -57.472656 15.328125 -57.421875 C 14.941406 -57.390625 14.78125 -57.035156 14.84375 -56.359375 C 14.976562 -55.890625 15.019531 -55.390625 14.96875 -54.859375 C 14.914062 -54.328125 14.957031 -53.828125 15.09375 -53.359375 C 15.125 -52.878906 15.085938 -52.347656 14.984375 -51.765625 C 14.890625 -51.179688 14.914062 -50.65625 15.0625 -50.1875 C 15.1875 -49.894531 15.238281 -49.582031 15.21875 -49.25 C 15.195312 -48.914062 15.144531 -48.601562 15.0625 -48.3125 C 14.738281 -47.601562 14.882812 -47.03125 15.5 -46.59375 C 15.601562 -46.507812 15.597656 -46.03125 15.484375 -45.15625 C 15.492188 -45.070312 15.457031 -44.925781 15.375 -44.71875 C 15.289062 -44.519531 15.253906 -44.328125 15.265625 -44.140625 C 15.378906 -43.953125 15.539062 -43.722656 15.75 -43.453125 C 15.96875 -43.179688 16.039062 -42.945312 15.96875 -42.75 C 15.894531 -42.445312 15.867188 -42.175781 15.890625 -41.9375 C 15.910156 -41.695312 15.929688 -41.429688 15.953125 -41.140625 C 16.078125 -40.773438 16.078125 -40.421875 15.953125 -40.078125 C 15.835938 -39.734375 15.75 -39.363281 15.6875 -38.96875 C 15.71875 -38.6875 15.742188 -38.398438 15.765625 -38.109375 C 15.785156 -37.816406 15.804688 -37.53125 15.828125 -37.25 C 15.828125 -37.25 15.988281 -37.113281 16.3125 -36.84375 C 15.84375 -36.625 15.644531 -36.320312 15.71875 -35.9375 C 15.800781 -35.5625 15.859375 -35.226562 15.890625 -34.9375 C 16.015625 -34.570312 16.113281 -34.195312 16.1875 -33.8125 C 16.269531 -33.4375 16.1875 -33 15.9375 -32.5 C 15.65625 -32.375 15.6875 -32.035156 16.03125 -31.484375 C 16.476562 -30.765625 16.382812 -30.132812 15.75 -29.59375 C 15.976562 -29.226562 16.125 -28.347656 16.1875 -26.953125 C 16.25 -25.566406 16.289062 -24.175781 16.3125 -22.78125 C 16.332031 -21.394531 16.210938 -20.445312 15.953125 -19.9375 C 16.066406 -19.851562 16.175781 -19.765625 16.28125 -19.671875 C 16.382812 -19.585938 16.488281 -19.453125 16.59375 -19.265625 C 16.90625 -19.097656 16.96875 -18.910156 16.78125 -18.703125 C 16.34375 -18.179688 16.242188 -17.617188 16.484375 -17.015625 C 16.734375 -16.410156 16.785156 -15.863281 16.640625 -15.375 C 16.585938 -14.789062 16.507812 -14.207031 16.40625 -13.625 C 16.3125 -13.039062 16.191406 -12.5 16.046875 -12 C 16.109375 -11.238281 16.195312 -10.71875 16.3125 -10.4375 C 16.332031 -10.25 16.421875 -10.0625 16.578125 -9.875 C 16.734375 -9.695312 16.628906 -9.492188 16.265625 -9.265625 C 16.171875 -9.171875 16.140625 -8.929688 16.171875 -8.546875 C 16.390625 -8.285156 16.515625 -7.984375 16.546875 -7.640625 C 16.578125 -7.304688 16.359375 -7.023438 15.890625 -6.796875 C 15.796875 -6.796875 15.757812 -6.648438 15.78125 -6.359375 C 15.8125 -6.078125 15.832031 -5.835938 15.84375 -5.640625 C 15.195312 -5.390625 14.851562 -5.191406 14.8125 -5.046875 C 14.78125 -4.898438 14.796875 -4.445312 14.859375 -3.6875 C 14.890625 -3.3125 14.84375 -2.945312 14.71875 -2.59375 C 14.601562 -2.238281 14.472656 -1.863281 14.328125 -1.46875 C 14.234375 -1.363281 14.113281 -1.28125 13.96875 -1.21875 C 13.832031 -1.164062 13.675781 -1.082031 13.5 -0.96875 C 13.21875 -0.75 12.960938 -0.535156 12.734375 -0.328125 C 12.515625 -0.117188 12.316406 0.0859375 12.140625 0.296875 C 11.492188 0.453125 10.875 0.476562 10.28125 0.375 C 9.695312 0.28125 9.085938 0.5 8.453125 1.03125 C 8.367188 1.144531 8.148438 1.164062 7.796875 1.09375 C 7.453125 1.019531 7.144531 0.992188 6.875 1.015625 C 6.488281 1.046875 6.238281 0.945312 6.125 0.71875 C 6.019531 0.488281 5.863281 0.332031 5.65625 0.25 C 5.238281 0 4.9375 -0.378906 4.75 -0.890625 C 4.570312 -1.410156 4.238281 -1.742188 3.75 -1.890625 C 3.34375 -2.054688 3.207031 -2.476562 3.34375 -3.15625 C 3.289062 -3.832031 3.3125 -4.460938 3.40625 -5.046875 C 3.5 -5.628906 3.566406 -6.265625 3.609375 -6.953125 C 3.765625 -7.328125 3.835938 -7.613281 3.828125 -7.8125 C 3.421875 -8.0625 3.222656 -8.40625 3.234375 -8.84375 C 3.253906 -9.28125 3.203125 -9.6875 3.078125 -10.0625 C 2.921875 -10.632812 2.769531 -11.203125 2.625 -11.765625 C 2.488281 -12.328125 2.347656 -12.890625 2.203125 -13.453125 C 2.203125 -13.453125 2.046875 -13.585938 1.734375 -13.859375 C 1.722656 -13.953125 1.71875 -14.019531 1.71875 -14.0625 C 1.71875 -14.113281 1.710938 -14.1875 1.703125 -14.28125 C 1.867188 -14.6875 1.984375 -15.082031 2.046875 -15.46875 C 2.109375 -15.863281 2.171875 -16.253906 2.234375 -16.640625 C 2.140625 -16.628906 1.890625 -16.703125 1.484375 -16.859375 C 1.441406 -17.335938 1.398438 -17.816406 1.359375 -18.296875 C 1.328125 -18.773438 1.289062 -19.253906 1.25 -19.734375 C 1.4375 -19.847656 1.570312 -19.929688 1.65625 -19.984375 C 1.75 -20.046875 1.84375 -20.128906 1.9375 -20.234375 C 2.53125 -21.234375 2.644531 -22.203125 2.28125 -23.140625 C 2.050781 -23.597656 1.796875 -24.054688 1.515625 -24.515625 C 1.234375 -24.984375 0.972656 -25.441406 0.734375 -25.890625 C 0.722656 -26.085938 0.710938 -26.234375 0.703125 -26.328125 C 0.691406 -26.421875 0.6875 -26.515625 0.6875 -26.609375 C 1.132812 -27.035156 1.289062 -27.484375 1.15625 -27.953125 C 1.019531 -28.421875 0.984375 -28.851562 1.046875 -29.25 C 1.097656 -29.820312 1.097656 -30.394531 1.046875 -30.96875 C 0.992188 -31.550781 0.992188 -32.132812 1.046875 -32.71875 C 1.023438 -33.007812 1.050781 -33.273438 1.125 -33.515625 C 1.207031 -33.765625 1.285156 -34.035156 1.359375 -34.328125 C 1.253906 -34.421875 1.125 -34.503906 0.96875 -34.578125 C 0.8125 -34.660156 0.6875 -34.695312 0.59375 -34.6875 C 0.570312 -34.976562 0.546875 -35.265625 0.515625 -35.546875 C 0.492188 -35.835938 0.476562 -36.078125 0.46875 -36.265625 C 0.476562 -37.328125 0.414062 -38.332031 0.28125 -39.28125 C 0.15625 -40.238281 -0.0351562 -41.191406 -0.296875 -42.140625 C -0.316406 -42.328125 -0.3125 -42.515625 -0.28125 -42.703125 C -0.25 -42.898438 -0.238281 -43.09375 -0.25 -43.28125 C -0.164062 -43.394531 -0.101562 -43.476562 -0.0625 -43.53125 C -0.0195312 -43.582031 0 -43.609375 0 -43.609375 C -0.425781 -44.046875 -0.554688 -44.488281 -0.390625 -44.9375 C -0.234375 -45.382812 -0.265625 -45.789062 -0.484375 -46.15625 C -0.242188 -46.664062 -0.253906 -47.050781 -0.515625 -47.3125 C -0.785156 -47.582031 -0.984375 -47.90625 -1.109375 -48.28125 C -1.109375 -48.363281 -1.113281 -48.453125 -1.125 -48.546875 C -1.132812 -48.640625 -1.144531 -48.738281 -1.15625 -48.84375 Z M -1.15625 -48.84375 "/></g></g></g></g></g><g transform="matrix(1, 0, 0, 1, 111, 0)"><g clip-path="url(#41816d7e5c)"><g fill="#000000" fill-opacity="1"><g transform="translate(0.99613, 263.556319)"><g><path d="M 36.453125 6.875 C 34.160156 6.414062 32.554688 5.097656 31.640625 2.921875 C 30.722656 0.742188 29.460938 -0.800781 27.859375 -1.71875 C 27.398438 -1.71875 27.113281 -1.316406 27 -0.515625 C 26.882812 0.285156 26.597656 0.457031 26.140625 0 C 25.453125 -0.6875 25.164062 -1.546875 25.28125 -2.578125 C 25.394531 -3.609375 25.453125 -4.582031 25.453125 -5.5 C 25.222656 -6.644531 24.992188 -7.847656 24.765625 -9.109375 C 24.535156 -10.367188 24.421875 -11.457031 24.421875 -12.375 C 24.191406 -17.425781 24.132812 -22.53125 24.25 -27.6875 C 24.363281 -32.84375 24.304688 -37.941406 24.078125 -42.984375 C 24.078125 -45.742188 23.960938 -48.554688 23.734375 -51.421875 C 23.503906 -54.285156 23.273438 -57.09375 23.046875 -59.84375 C 22.816406 -70.15625 22.703125 -80.640625 22.703125 -91.296875 C 22.703125 -101.960938 22.585938 -112.457031 22.359375 -122.78125 C 22.359375 -125.988281 21.898438 -127.878906 20.984375 -128.453125 C 20.066406 -129.023438 18.921875 -130.226562 17.546875 -132.0625 C 16.859375 -133.207031 16.164062 -134.410156 15.46875 -135.671875 C 14.78125 -136.929688 14.09375 -138.132812 13.40625 -139.28125 C 12.488281 -140.4375 11.6875 -141.757812 11 -143.25 C 10.3125 -144.738281 10.082031 -146.285156 10.3125 -147.890625 C 11.226562 -149.722656 12.488281 -150.753906 14.09375 -150.984375 C 15.707031 -151.210938 17.375 -151.382812 19.09375 -151.5 C 20.8125 -151.613281 22.128906 -152.359375 23.046875 -153.734375 C 23.960938 -153.503906 25.050781 -153.101562 26.3125 -152.53125 C 27.570312 -151.957031 28.660156 -151.671875 29.578125 -151.671875 C 30.492188 -151.671875 31.296875 -151.898438 31.984375 -152.359375 C 32.671875 -152.816406 33.359375 -153.160156 34.046875 -153.390625 C 35.878906 -153.847656 38 -153.847656 40.40625 -153.390625 C 42.8125 -152.929688 44.816406 -152.472656 46.421875 -152.015625 C 48.953125 -151.554688 51.476562 -151.441406 54 -151.671875 C 56.519531 -151.898438 58.925781 -152.015625 61.21875 -152.015625 C 61.21875 -152.015625 61.445312 -152.242188 61.90625 -152.703125 C 62.363281 -152.703125 62.878906 -152.644531 63.453125 -152.53125 C 64.023438 -152.414062 64.539062 -152.359375 65 -152.359375 C 65.457031 -152.128906 65.914062 -151.785156 66.375 -151.328125 C 66.832031 -150.867188 67.289062 -150.523438 67.75 -150.296875 C 70.957031 -149.148438 74.625 -148.691406 78.75 -148.921875 C 82.882812 -149.148438 86.097656 -148.117188 88.390625 -145.828125 C 91.140625 -146.285156 93.660156 -145.65625 95.953125 -143.9375 C 98.242188 -142.21875 100.765625 -141.816406 103.515625 -142.734375 C 105.117188 -140.890625 107.410156 -139.507812 110.390625 -138.59375 C 113.378906 -137.675781 116.421875 -136.757812 119.515625 -135.84375 C 122.609375 -134.925781 124.957031 -133.550781 126.5625 -131.71875 C 129.3125 -128.738281 131.71875 -125.414062 133.78125 -121.75 C 135.84375 -118.082031 138.019531 -114.53125 140.3125 -111.09375 C 141.46875 -109.25 142.390625 -107.296875 143.078125 -105.234375 C 143.765625 -103.171875 144.335938 -100.648438 144.796875 -97.671875 C 145.253906 -96.296875 145.710938 -94.804688 146.171875 -93.203125 C 146.628906 -91.597656 146.972656 -90.109375 147.203125 -88.734375 C 147.429688 -87.585938 147.429688 -86.382812 147.203125 -85.125 C 146.972656 -83.863281 146.859375 -82.660156 146.859375 -81.515625 C 146.859375 -77.835938 145.941406 -73.9375 144.109375 -69.8125 C 142.273438 -65.6875 140.664062 -62.019531 139.28125 -58.8125 C 139.050781 -58.582031 138.765625 -58.238281 138.421875 -57.78125 C 138.078125 -57.320312 137.789062 -56.863281 137.5625 -56.40625 C 137.332031 -55.945312 137.21875 -55.429688 137.21875 -54.859375 C 137.21875 -54.285156 137.101562 -53.769531 136.875 -53.3125 C 136.1875 -51.707031 135.328125 -50.15625 134.296875 -48.65625 C 133.265625 -47.164062 132.519531 -45.503906 132.0625 -43.671875 C 131.601562 -43.210938 131.144531 -43.210938 130.6875 -43.671875 C 130.226562 -44.128906 129.769531 -44.128906 129.3125 -43.671875 C 128.851562 -42.984375 128.738281 -42.066406 128.96875 -40.921875 C 129.195312 -39.773438 128.96875 -38.972656 128.28125 -38.515625 C 128.050781 -38.054688 127.707031 -38 127.25 -38.34375 C 126.789062 -38.6875 126.332031 -38.859375 125.875 -38.859375 C 124.726562 -37.484375 123.410156 -36.335938 121.921875 -35.421875 C 120.429688 -34.503906 118.882812 -33.472656 117.28125 -32.328125 C 116.132812 -31.410156 115.101562 -30.320312 114.1875 -29.0625 C 113.269531 -27.800781 112.238281 -26.828125 111.09375 -26.140625 C 110.175781 -25.453125 109.195312 -24.820312 108.15625 -24.25 C 107.125 -23.675781 106.265625 -22.816406 105.578125 -21.671875 L 103.515625 -21.671875 C 102.828125 -20.753906 102.023438 -20.179688 101.109375 -19.953125 C 100.191406 -19.722656 99.390625 -19.378906 98.703125 -18.921875 C 97.785156 -18.460938 96.867188 -17.769531 95.953125 -16.84375 C 95.035156 -15.925781 94.003906 -15.238281 92.859375 -14.78125 C 91.710938 -14.09375 90.566406 -13.578125 89.421875 -13.234375 C 88.273438 -12.890625 87.128906 -12.375 85.984375 -11.6875 L 83.578125 -8.9375 C 82.660156 -8.476562 81.742188 -8.191406 80.828125 -8.078125 C 79.910156 -7.960938 78.988281 -7.675781 78.0625 -7.21875 C 77.144531 -6.757812 76.398438 -6.070312 75.828125 -5.15625 C 75.253906 -4.238281 74.507812 -3.550781 73.59375 -3.09375 C 72.21875 -2.40625 70.898438 -2.003906 69.640625 -1.890625 C 68.378906 -1.773438 67.175781 -1.144531 66.03125 0 C 65.113281 -0.6875 64.195312 -1.03125 63.28125 -1.03125 C 62.363281 -1.03125 61.445312 -1.144531 60.53125 -1.375 C 59.84375 -1.832031 58.695312 -2.863281 57.09375 -4.46875 C 55.488281 -6.070312 54.457031 -7.21875 54 -7.90625 C 53.539062 -8.59375 52.910156 -10.023438 52.109375 -12.203125 C 51.304688 -14.378906 50.675781 -16.046875 50.21875 -17.203125 C 49.988281 -19.265625 49.988281 -21.097656 50.21875 -22.703125 C 51.363281 -23.847656 52.96875 -24.304688 55.03125 -24.078125 C 57.09375 -23.847656 58.125 -22.585938 58.125 -20.296875 C 59.726562 -18.921875 61.21875 -18.804688 62.59375 -19.953125 C 63.96875 -21.097656 65.113281 -21.785156 66.03125 -22.015625 C 66.488281 -22.242188 67.003906 -22.242188 67.578125 -22.015625 C 68.148438 -21.785156 68.664062 -21.671875 69.125 -21.671875 C 70.957031 -22.128906 72.90625 -22.929688 74.96875 -24.078125 C 77.03125 -25.222656 79.097656 -26.140625 81.171875 -26.828125 C 81.628906 -27.054688 82.085938 -27.171875 82.546875 -27.171875 C 83.003906 -27.171875 83.347656 -27.285156 83.578125 -27.515625 C 84.492188 -27.972656 85.296875 -28.546875 85.984375 -29.234375 C 86.671875 -29.921875 87.472656 -30.378906 88.390625 -30.609375 C 88.847656 -30.835938 89.363281 -30.953125 89.9375 -30.953125 C 90.507812 -30.953125 91.023438 -31.066406 91.484375 -31.296875 C 92.628906 -31.753906 93.488281 -32.269531 94.0625 -32.84375 C 94.632812 -33.414062 95.492188 -33.929688 96.640625 -34.390625 C 97.554688 -34.847656 98.53125 -35.421875 99.5625 -36.109375 C 100.59375 -36.796875 101.566406 -37.484375 102.484375 -38.171875 C 102.941406 -38.628906 103.398438 -39.257812 103.859375 -40.0625 C 104.316406 -40.863281 104.773438 -41.378906 105.234375 -41.609375 C 105.691406 -41.835938 106.265625 -41.953125 106.953125 -41.953125 C 107.640625 -41.953125 108.097656 -42.066406 108.328125 -42.296875 C 109.015625 -42.753906 109.585938 -43.382812 110.046875 -44.1875 C 110.515625 -44.988281 110.976562 -45.734375 111.4375 -46.421875 C 112.582031 -47.578125 113.898438 -48.671875 115.390625 -49.703125 C 116.878906 -50.734375 118.195312 -52.050781 119.34375 -53.65625 C 123.238281 -59.382812 126.5625 -66.144531 129.3125 -73.9375 C 130.6875 -80.132812 131.316406 -86.671875 131.203125 -93.546875 C 131.085938 -100.421875 129.769531 -105.925781 127.25 -110.0625 C 126.332031 -111.207031 125.359375 -112.179688 124.328125 -112.984375 C 123.296875 -113.785156 122.207031 -114.644531 121.0625 -115.5625 C 120.601562 -116.25 120.144531 -116.992188 119.6875 -117.796875 C 119.226562 -118.597656 118.769531 -119.226562 118.3125 -119.6875 C 117.394531 -120.375 116.191406 -120.890625 114.703125 -121.234375 C 113.210938 -121.578125 111.894531 -121.976562 110.75 -122.4375 C 109.59375 -122.894531 108.441406 -123.523438 107.296875 -124.328125 C 106.148438 -125.128906 104.890625 -125.300781 103.515625 -124.84375 C 100.992188 -127.363281 97.613281 -128.796875 93.375 -129.140625 C 89.132812 -129.484375 85.066406 -130.113281 81.171875 -131.03125 C 79.796875 -131.488281 78.53125 -132.003906 77.375 -132.578125 C 76.226562 -133.148438 74.96875 -133.320312 73.59375 -133.09375 C 72.675781 -133.09375 71.757812 -132.863281 70.84375 -132.40625 C 69.925781 -131.945312 69.007812 -131.71875 68.09375 -131.71875 C 67.40625 -131.71875 66.660156 -131.890625 65.859375 -132.234375 C 65.054688 -132.578125 64.195312 -132.289062 63.28125 -131.375 C 62.363281 -132.976562 61.21875 -133.78125 59.84375 -133.78125 C 58.46875 -133.78125 56.863281 -133.894531 55.03125 -134.125 C 54.570312 -134.351562 54.113281 -134.582031 53.65625 -134.8125 C 53.195312 -135.039062 52.738281 -135.269531 52.28125 -135.5 C 49.300781 -135.957031 46.144531 -135.898438 42.8125 -135.328125 C 39.488281 -134.753906 36.796875 -134.125 34.734375 -133.4375 C 35.191406 -131.832031 35.363281 -129.882812 35.25 -127.59375 C 35.132812 -125.300781 34.960938 -122.894531 34.734375 -120.375 C 34.273438 -113.957031 34.21875 -106.789062 34.5625 -98.875 C 34.90625 -90.96875 35.078125 -83.570312 35.078125 -76.6875 C 35.078125 -73.019531 35.078125 -69.066406 35.078125 -64.828125 C 35.078125 -60.585938 35.191406 -56.289062 35.421875 -51.9375 C 35.421875 -50.332031 35.476562 -48.835938 35.59375 -47.453125 C 35.707031 -46.078125 35.765625 -44.472656 35.765625 -42.640625 C 35.535156 -40.347656 35.535156 -38.113281 35.765625 -35.9375 C 35.992188 -33.757812 36.222656 -31.410156 36.453125 -28.890625 L 36.453125 -9.28125 C 36.453125 -6.53125 36.625 -3.78125 36.96875 -1.03125 C 37.3125 1.71875 37.140625 4.351562 36.453125 6.875 Z M 36.453125 6.875 "/></g></g></g></g></g></svg>